<svg xmlns="http://www.w3.org/2000/svg" viewBox="0 0 1867.52 431.74"><defs><style>.cls-1{fill:#d24d7f;}.cls-2{fill:#5aacca;}.cls-3{fill:#ebb04f;}.cls-4{fill:#20627d;}.cls-5{fill:#d24d80;}.cls-6{fill:#aba62b;}.cls-7{fill:#fff;}</style></defs><title>자산 2</title><g id="레이어_2" data-name="레이어 2"><g id="이미지_추적" data-name="이미지 추적"><path class="cls-1" d="M6.18,305.77A215.58,215.58,0,0,1,0,250.35c.71-71.41,26.81-132.17,78.2-181.49,39.64-38,87.27-60.33,142-67,7.93-1,15.85-2,23.88-1.69C249,1.77,252.29,5.75,256,9A560,560,0,0,1,299.3,51.76a521.41,521.41,0,0,1,49.19,62.83c15.2,22.9,29,46.63,40.19,71.8,1.8,4,4.93,7.63,4.63,12.46a2.73,2.73,0,0,1-1.19,1c-12.16,2.73-24.58,4-36.77,6.62a410.55,410.55,0,0,0-72.53,23.28,49.79,49.79,0,0,1-7.08,2.17l-1.46.19c-8.93,1.56-17.86.19-26.76-.26a183.81,183.81,0,0,0-22.39.07c-10.6.76-21.22,1.09-31.8,2.28a387.75,387.75,0,0,0-92,22.14c-31.84,11.83-61.47,27.87-89.47,47C10.2,304.51,8.69,306.4,6.18,305.77Z"/><path class="cls-2" d="M393.18,198.94A541,541,0,0,0,328.34,88.51a529.72,529.72,0,0,0-82.6-86.58A18.08,18.08,0,0,1,244.06.12c59.49-1.74,113,15.58,160,51.77s77.43,83.59,91.44,141.36c.55,2.25.87,4.56,1.3,6.83-1.65,1.52-3.7,1.5-5.66,1.19-16.28-2.59-32.76-3-49.15-3.4a250.41,250.41,0,0,0-30.82,1.19c-4.63.45-9.29.38-13.9,1.11A4.35,4.35,0,0,1,393.18,198.94Z"/><path class="cls-3" d="M6.18,305.77c48.39-34.43,101.46-58,160-68.9,18.64-3.48,37.43-5.2,56.37-6.27,17.36-1,34.52.46,51.75,1.5-17.95,9.09-35.81,18.31-52.61,29.49Q127.28,324.38,79.08,427c-.7,1.48-1.47,2.94-2.39,4.78A250.71,250.71,0,0,1,6.26,307.26,8.18,8.18,0,0,1,6.18,305.77Z"/><path class="cls-4" d="M393.18,198.94c14.49-1.85,29.1-2.11,43.66-2.72,10.41-.43,20.9.35,31.33,1,9.58.64,19.11,1.87,28.67,2.83,5.15,22.24,6.16,44.81,4.77,67.48a220.73,220.73,0,0,1-10.21,55.77c-2.47.36-4-1.33-5.65-2.65a434.12,434.12,0,0,0-61.54-41.28,12.08,12.08,0,0,1-4.25-3.34l0,0c-3-3.58-3.55-8.18-4.77-12.41a513.92,513.92,0,0,0-20.7-58.07c-.88-2.07-2.29-4.11-1.53-6.6Z"/><path class="cls-4" d="M232.22,371a44.66,44.66,0,0,1,44.63-44.83c24.7,0,44.93,20.24,44.75,44.75a44.69,44.69,0,0,1-89.38.08Z"/><path class="cls-5" d="M420,276.06c23.33,11.95,44.91,26.58,65.47,42.78,2,1.54,4,3,6,4.49C483.33,351.67,470,377.38,452.46,401a135.15,135.15,0,0,1-14.13,16.93c-.33-11-.39-21.06-.95-31.14A543.55,543.55,0,0,0,420.23,278,15.83,15.83,0,0,1,420,276.06Z"/><path class="cls-6" d="M393,199A495.94,495.94,0,0,1,420,276c-20.94-10.45-42.23-20-64.58-27.11a381.23,381.23,0,0,0-75.25-16.19c-1.48-.16-2.94-.54-4.41-.82,11.56-6.29,24-10.52,36.34-14.85,25.31-8.85,51.42-14.29,77.91-18A29.87,29.87,0,0,1,393,199Z"/><path class="cls-7" d="M1712.27,271.09c49.71,0,95,.07,140.37-.07,8.31,0,14.74-.95,14.88,11.68.14,13.07-6.07,13-15.49,13-52.31-.25-104.63-.17-157-.07-9.44,0-18.81.17-21.51-11.64-2.45-10.69,1.65-18,10.92-24.29,46.61-31.39,92.86-63.32,140.38-95.84-5.75-4.35-11.49-2.44-16.61-2.46-40.37-.18-80.74-.27-121.11,0-9.09.07-14.81-.46-14.66-12.36.15-10.92,4.13-13.26,14-13.2,53.45.36,106.9.17,160.36.18,8.08,0,17.12-.44,19.43,9.58,2.37,10.31,1,19.27-9.71,26.38-45.37,30.25-90.15,61.38-135.14,92.2C1719.61,265.46,1717.86,266.88,1712.27,271.09Z"/><path class="cls-7" d="M1537.75,136c20.47,0,41,1,61.4-.2,49.15-2.87,55.9,40.4,44.46,69.92-2.93,7.56-3.23,12.32,0,19.89,8.66,20.56,3.8,42.66,3.81,64.08,0,9.76-9.59,4.8-15,5.72-5.82,1-9.92-.88-9.8-8,.2-11.94.09-23.88,0-35.82-.16-20.1-2.73-22.85-22.45-22.92-32.41-.13-64.82-.23-97.23.08-9.5.08-15.5-.14-15.53-13.14,0-13.92,7.56-12.32,16.24-12.29q48.61.16,97.23,0c18.26-.09,21.42-4.12,21.93-22.11.46-16.09-7.28-20.39-22.06-20.13-36.38.65-72.78.55-109.16,0-10.31-.15-13.72,2.77-13.54,13.37.61,35.81,0,71.64.41,107.46.12,9.62-1.4,14-12.74,14.13-12.28.15-12-6-12-14.66.22-43.78.51-87.56-.18-131.33-.18-11.4,3.25-14.6,14.31-14.25C1491.11,136.52,1514.44,136,1537.75,136Z"/><path class="cls-7" d="M1345,228.61c-21.61,0-43.21-.15-64.81.08-7.84.08-17.23-3.29-17.36,11.29-.18,22.26,2.88,30.15,17.32,30.9,15.31.79,30.69.2,46,.2,29.56,0,59.13.37,88.68-.2,9.69-.19,12.5,2.8,12.5,12.42s-3,12.55-12.61,12.45c-45.47-.45-91,.12-136.44-.34-24.06-.25-39.16-15.7-39.55-39.78q-.65-40.08,0-80.16c.42-23.07,15.3-38.83,38.46-39.19,46-.73,92.1,0,138.14-.48,10.62-.12,11.66,4.62,11.93,13.35.31,10-3.54,12.38-12.88,12.3-43.78-.4-87.55-.11-131.33-.23-7.79,0-15.28.48-18.17,9.14a50.49,50.49,0,0,0-.45,30.11c1.55,5.28,9.12,2.76,14,2.78q66.51.24,133,0c9.08,0,16-.71,16,12.67s-7,12.83-16,12.74C1389.35,228.47,1367.18,228.61,1345,228.61Z"/><path class="cls-7" d="M883.2,136c22.76,0,45.53-.35,68.29.1,26.75.53,41,15.16,41.35,41.37.42,34-11.87,50.26-40.64,50.92-35.83.83-71.7-.09-107.54.41-10.42.15-11.8-4.51-12.07-13.38-.31-10.16,3.73-12.38,13-12.26,33.57.44,67.15.28,100.72.13,18.66-.09,21.64-3.82,22.21-21.84.51-16-7-20.63-21.91-20.37q-54.61.93-109.25,0c-10.41-.16-13.74,2.81-13.57,13.39.6,35.84-.08,71.71.42,107.55.14,10.05-2.23,13.84-13.16,14-11.82.14-12.53-5.35-12.46-14.56.32-43.81.59-87.64-.15-131.45-.21-11.91,4.18-14.4,14.77-14.15C836.52,136.39,859.87,136,883.2,136Z"/><path class="cls-7" d="M1102.08,136c22.74,0,45.48-.24,68.22.07,28.7.38,42.76,15.46,43,45.45s-13.62,46.32-41.66,46.89c-35.24.7-70.5-.13-105.73.4-10,.14-12.5-3.43-12.44-12.84,0-9.25,2.23-13,12.37-12.85,33.53.59,67.07.34,100.61.17,18.43-.1,21.21-3.89,21.77-22.22.5-16.34-7.61-20.23-22.16-20-35.81.59-71.64.75-107.43-.11-12.33-.29-15.09,3.62-14.83,15.3.77,34.66.14,69.35.36,104,.06,9.06.89,16.09-12.63,15.77-12.16-.29-12.07-6.09-12-14.79.22-43.77.53-87.55-.18-131.31-.19-11.68,3.77-14.48,14.57-14.16C1056.59,136.47,1079.34,136,1102.08,136Z"/><path class="cls-7" d="M773.3,173.35c-.6-20.95-15.27-36.27-35.49-36.78q-61.3-1.56-122.69,0c-20.21.49-35,15.6-35.27,34.65-.61,38,.23,76.13-.46,114.18-.2,10.93,5.63,9.94,12.76,10.3,8.21.41,12.61-1.34,12.15-11-.71-14.73.21-29.54-.32-44.3-.32-8.81,2.77-12.11,11.69-11.91,20.44.44,40.9.14,61.35.14,19.89,0,39.78.31,59.66-.14,8.73-.2,12.23,2.65,11.93,11.67-.52,15.32.25,30.69-.23,46-.35,11.21,7.19,9.09,13.78,9.43,7.05.36,11.83-.56,11.72-9.76C773.47,248.34,774.38,210.82,773.3,173.35Zm-25,20.39c1.55,12.51-8.25,9.43-14.92,9.52-19.28.24-38.57.08-57.85.09-18.72,0-37.44.21-56.15-.12-6.5-.12-16.59,3.44-15.13-9.25,1.35-11.75-6.74-30.73,12.4-31.85a1050,1050,0,0,1,119,0C755.15,163.18,746.87,182.05,748.32,193.74Z"/></g></g></svg>